{
  "accessors": [
    {
      "bufferView": 1,
      "componentType": 5126,
      "count": 256,
      "max": [
        7.488999843597412,
        -84.13800048828125,
        7.561999797821045
      ],
      "min": [
        -7.659999847412109,
        -84.61199951171875,
        -7.586999893188477
      ],
      "type": "VEC3"
    },
    {
      "bufferView": 1,
      "byteOffset": 3072,
      "componentType": 5126,
      "count": 256,
      "max": [
        0.9998695254325867,
        1.0,
        0.9998621940612793
      ],
      "min": [
        -0.9998621940612793,
        -1.0,
        -0.9998695254325867
      ],
      "type": "VEC3"
    },
    {
      "bufferView": 0,
      "componentType": 5125,
      "count": 756,
      "type": "SCALAR"
    },
    {
      "bufferView": 1,
      "byteOffset": 6144,
      "componentType": 5126,
      "count": 10902,
      "max": [
        19.957000732421875,
        -6.354000091552734,
        19.98200035095215
      ],
      "min": [
        -20.042999267578125,
        -87.28070068359375,
        -20.01799964904785
      ],
      "type": "VEC3"
    },
    {
      "bufferView": 1,
      "byteOffset": 136968,
      "componentType": 5126,
      "count": 10902,
      "max": [
        1.0,
        1.0,
        1.0
      ],
      "min": [
        -1.0,
        -1.0,
        -1.0
      ],
      "type": "VEC3"
    },
    {
      "bufferView": 0,
      "byteOffset": 3024,
      "componentType": 5125,
      "count": 32733,
      "type": "SCALAR"
    },
    {
      "bufferView": 1,
      "byteOffset": 267792,
      "componentType": 5126,
      "count": 34206,
      "max": [
        25.697999954223633,
        -7.789000034332275,
        25.690000534057617
      ],
      "min": [
        -25.750999450683594,
        -86.66000366210938,
        -25.812000274658203
      ],
      "type": "VEC3"
    },
    {
      "bufferView": 1,
      "byteOffset": 678264,
      "componentType": 5126,
      "count": 34206,
      "max": [
        1.0,
        1.0,
        1.0
      ],
      "min": [
        -1.0,
        -1.0,
        -1.0
      ],
      "type": "VEC3"
    },
    {
      "bufferView": 0,
      "byteOffset": 133956,
      "componentType": 5125,
      "count": 186822,
      "type": "SCALAR"
    },
    {
      "bufferView": 1,
      "byteOffset": 1088736,
      "componentType": 5126,
      "count": 52784,
      "max": [
        26.972999572753906,
        -26.23699951171875,
        26.91200065612793
      ],
      "min": [
        -26.972999572753906,
        -88.0,
        -27.03499984741211
      ],
      "type": "VEC3"
    },
    {
      "bufferView": 1,
      "byteOffset": 1722144,
      "componentType": 5126,
      "count": 52784,
      "max": [
        1.0,
        1.0,
        1.0
      ],
      "min": [
        -1.0,
        -1.0,
        -1.0
      ],
      "type": "VEC3"
    },
    {
      "bufferView": 0,
      "byteOffset": 881244,
      "componentType": 5125,
      "count": 239637,
      "type": "SCALAR"
    },
    {
      "bufferView": 1,
      "byteOffset": 2355552,
      "componentType": 5126,
      "count": 42429,
      "max": [
        26.54840087890625,
        -0.0038999998942017555,
        26.489900588989258
      ],
      "min": [
        -26.550500869750977,
        -87.80239868164063,
        -26.61210060119629
      ],
      "type": "VEC3"
    },
    {
      "bufferView": 1,
      "byteOffset": 2864700,
      "componentType": 5126,
      "count": 42429,
      "max": [
        1.0,
        1.0,
        1.0
      ],
      "min": [
        -1.0,
        -1.0,
        -1.0
      ],
      "type": "VEC3"
    },
    {
      "bufferView": 0,
      "byteOffset": 1839792,
      "componentType": 5125,
      "count": 143382,
      "type": "SCALAR"
    }
  ],
  "asset": {
    "extras": {
      "author": "Rowan Design (https://sketchfab.com/rowansreid)",
      "license": "CC-BY-4.0 (http://creativecommons.org/licenses/by/4.0/)",
      "source": "https://sketchfab.com/3d-models/rocket-idea-a8b31577b71b47868c48bb5074d9bbf1",
      "title": "Rocket Idea"
    },
    "generator": "Sketchfab-12.66.0",
    "version": "2.0"
  },
  "bufferViews": [
    {
      "buffer": 0,
      "byteLength": 2413320,
      "name": "floatBufferViews",
      "target": 34963
    },
    {
      "buffer": 0,
      "byteLength": 3373848,
      "byteOffset": 2413320,
      "byteStride": 12,
      "name": "floatBufferViews",
      "target": 34962
    }
  ],
  "buffers": [
    {
      "byteLength": 5787168,
      "uri": "scene.bin"
    }
  ],
  "extensionsUsed": [
    "KHR_materials_transmission"
  ],
  "materials": [
    {
      "alphaMode": "BLEND",
      "doubleSided": true,
      "emissiveFactor": [
        0.2610518293,
        0.07838597610955886,
        0.0
      ],
      "extensions": {
        "KHR_materials_transmission": {
          "transmissionFactor": 1.0
        }
      },
      "name": "color_-1023687270",
      "pbrMetallicRoughness": {
        "baseColorFactor": [
          0.0,
          0.0,
          0.0,
          0.25
        ],
        "roughnessFactor": 0.0
      }
    },
    {
      "doubleSided": true,
      "name": "color_10988977",
      "pbrMetallicRoughness": {
        "baseColorFactor": [
          0.654902,
          0.678431,
          0.694118,
          1.0
        ],
        "metallicFactor": 0.3370807927,
        "roughnessFactor": 0.0
      }
    },
    {
      "doubleSided": true,
      "emissiveFactor": [
        1.0,
        0.218076349,
        0.0
      ],
      "name": "color_16089887",
      "pbrMetallicRoughness": {
        "baseColorFactor": [
          0.0,
          0.0,
          0.0,
          1.0
        ],
        "metallicFactor": 0.0
      }
    },
    {
      "doubleSided": true,
      "name": "color_2829873",
      "pbrMetallicRoughness": {
        "baseColorFactor": [
          0.168627,
          0.180392,
          0.192157,
          1.0
        ],
        "roughnessFactor": 0.22999237800000005
      }
    },
    {
      "doubleSided": true,
      "name": "color_6383466",
      "pbrMetallicRoughness": {
        "baseColorFactor": [
          0.380392,
          0.403922,
          0.415686,
          1.0
        ],
        "roughnessFactor": 0.27877286590000006
      }
    }
  ],
  "meshes": [
    {
      "name": "Object_0",
      "primitives": [
        {
          "attributes": {
            "NORMAL": 1,
            "POSITION": 0
          },
          "indices": 2,
          "material": 0,
          "mode": 4
        }
      ]
    },
    {
      "name": "Object_1",
      "primitives": [
        {
          "attributes": {
            "NORMAL": 4,
            "POSITION": 3
          },
          "indices": 5,
          "material": 1,
          "mode": 4
        }
      ]
    },
    {
      "name": "Object_2",
      "primitives": [
        {
          "attributes": {
            "NORMAL": 7,
            "POSITION": 6
          },
          "indices": 8,
          "material": 2,
          "mode": 4
        }
      ]
    },
    {
      "name": "Object_3",
      "primitives": [
        {
          "attributes": {
            "NORMAL": 10,
            "POSITION": 9
          },
          "indices": 11,
          "material": 3,
          "mode": 4
        }
      ]
    },
    {
      "name": "Object_4",
      "primitives": [
        {
          "attributes": {
            "NORMAL": 13,
            "POSITION": 12
          },
          "indices": 14,
          "material": 4,
          "mode": 4
        }
      ]
    }
  ],
  "nodes": [
    {
      "children": [
        1
      ],
      "matrix": [
        0.013282006606459618,
        0.0,
        0.0,
        0.0,
        0.0,
        2.9491979095429816e-18,
        -0.013282006606459618,
        0.0,
        0.0,
        0.013282006606459618,
        2.9491979095429816e-18,
        0.0,
        0.0,
        0.0,
        0.0,
        1.0
      ],
      "name": "Sketchfab_model"
    },
    {
      "children": [
        2,
        3,
        4,
        5,
        6
      ],
      "name": "tinker.obj.cleaner.materialmerger.gles"
    },
    {
      "mesh": 0,
      "name": "Object_2"
    },
    {
      "mesh": 1,
      "name": "Object_3"
    },
    {
      "mesh": 2,
      "name": "Object_4"
    },
    {
      "mesh": 3,
      "name": "Object_5"
    },
    {
      "mesh": 4,
      "name": "Object_6"
    }
  ],
  "scene": 0,
  "scenes": [
    {
      "name": "Sketchfab_Scene",
      "nodes": [
        0
      ]
    }
  ]
}
